<svg width="86" height="84" viewBox="0 0 86 84" fill="none" xmlns="http://www.w3.org/2000/svg">
<g clipPath="url(#clip0_312_717)">
<path d="M18.205 0.427104C16.326 1.27193 15.1557 3.21462 13.9232 4.85265C12.1586 7.19757 10.7698 9.81841 9.54609 12.4796C8.75267 14.2054 8.05269 15.9946 7.64303 17.8467C6.98916 20.8029 6.74935 23.8599 6.78665 26.886C6.81626 29.2879 7.03892 31.7157 7.64303 34.0421C8.27334 36.4695 9.3102 38.7962 10.4975 41.01C13.4341 46.4846 17.0431 51.6191 20.9644 56.452C22.7761 58.6851 24.7229 60.8488 26.959 62.6664C29.5154 64.7444 32.3808 66.4607 35.3325 67.9393C38.4593 69.5055 41.7468 70.8127 45.1333 71.7057C50.2479 73.0542 55.5863 73.3719 60.8336 74.0597C65.2955 74.6445 69.7562 75.3157 74.2501 75.5662C76.645 75.6997 79.1185 76.1363 81.4463 75.5631C82.6779 75.2598 83.9903 74.7572 84.8104 73.7987C85.3604 73.156 85.4398 72.2253 85.6178 71.4018C85.7592 70.7475 85.9505 70.0608 85.8197 69.4043C85.5149 67.875 84.4762 66.5712 83.5993 65.2764C82.5619 63.7444 81.3825 62.2875 80.0332 61.0154C77.9225 59.025 75.545 57.2917 73.0358 55.8221C69.4337 53.7126 65.4695 52.2687 61.5978 50.6956C58.5456 49.4552 55.4273 48.3782 52.3128 47.3001C49.8158 46.4356 47.2938 45.6432 44.7772 44.8366C41.9565 43.9326 39.0362 43.3022 36.2995 42.1732C34.3364 41.3635 32.416 40.413 30.6477 39.2436C28.1456 37.589 25.8068 35.6612 23.7177 33.5178C21.7867 31.5368 20.2019 29.2457 18.6042 26.9928C17.3996 25.2944 16.0347 23.653 15.24 21.7328C14.3964 19.6945 14.0905 17.4618 13.827 15.2746C13.6066 13.4449 13.3219 11.554 13.6925 9.74831C14.104 7.7431 15.1206 5.87009 16.2492 4.1556C17.1855 2.73329 20.4164 1.89387 19.6805 0.360429C19.4694 -0.0795952 18.6535 0.225844 18.2053 0.427346L18.205 0.427104Z" fill="white" stroke="black"/>
<path d="M34.0494 67.3508C34.0494 67.3508 31.7536 68.4141 30.9333 68.7867C29.9503 69.2331 29.0296 69.8113 28.0311 70.2226C26.7486 70.751 25.4521 71.3126 24.0824 71.5409C23.144 71.6972 22.1348 71.8492 21.2279 71.5644C20.5672 71.3569 19.8829 70.9594 19.5389 70.3639C19.1043 69.6114 19.1006 68.6182 19.301 67.7745C19.4566 67.1195 19.9855 66.6101 20.3715 66.0561C20.6893 65.6 21.0273 65.1562 21.3944 64.7379C21.7584 64.3231 22.162 63.9438 22.56 63.5609C22.8778 63.2551 23.1149 62.8054 23.5353 62.6664C24.4198 62.3738 26.9371 62.7605 26.9371 62.7605" fill="white"/>
<path d="M34.0494 67.3508C34.0494 67.3508 31.7536 68.4141 30.9333 68.7867C29.9503 69.2331 29.0296 69.8113 28.0311 70.2226C26.7486 70.751 25.4521 71.3126 24.0824 71.5409C23.144 71.6972 22.1348 71.8492 21.2279 71.5644C20.5672 71.3569 19.8829 70.9594 19.5389 70.3639C19.1043 69.6114 19.1006 68.6182 19.301 67.7745C19.4566 67.1195 19.9855 66.6101 20.3715 66.0561C20.6893 65.6 21.0273 65.1562 21.3944 64.7379C21.7584 64.3231 22.162 63.9438 22.56 63.5609C22.8778 63.2551 23.1149 62.8054 23.5353 62.6664C24.4198 62.3738 26.9371 62.7605 26.9371 62.7605" stroke="black"/>
<path d="M51.8094 73.0983C51.8094 73.0983 50.7574 73.5954 50.2619 73.8972C49.8034 74.1765 49.1957 74.3554 48.9499 74.8294C48.6479 75.4119 48.8544 76.1456 48.9499 76.7935C49.1255 77.9851 49.5121 79.1494 49.9928 80.2557C50.3301 81.0321 50.6615 81.861 51.2711 82.4529C51.9017 83.065 52.7326 83.5176 53.5924 83.7179C54.3899 83.9036 55.2997 83.9477 56.0482 83.618C56.693 83.334 57.0749 82.6551 57.5284 82.1199C58.1843 81.346 58.8787 80.5712 59.3114 79.6565C59.6897 78.8569 59.7922 77.9552 59.9843 77.0931C60.1462 76.3662 60.4216 75.6396 60.388 74.896C60.3729 74.5625 60.1188 73.9305 60.1188 73.9305" fill="white"/>
<path d="M51.8094 73.0983C51.8094 73.0983 50.7574 73.5954 50.2619 73.8972C49.8034 74.1765 49.1957 74.3554 48.9499 74.8294C48.6479 75.4119 48.8544 76.1456 48.9499 76.7935C49.1255 77.9851 49.5121 79.1494 49.9928 80.2557C50.3301 81.0321 50.6615 81.861 51.2711 82.4529C51.9017 83.065 52.7326 83.5176 53.5924 83.7179C54.3899 83.9036 55.2997 83.9477 56.0482 83.618C56.693 83.334 57.0749 82.6551 57.5284 82.1199C58.1843 81.346 58.8787 80.5712 59.3114 79.6565C59.6897 78.8569 59.7922 77.9552 59.9843 77.0931C60.1462 76.3662 60.4216 75.6396 60.388 74.896C60.3729 74.5625 60.1188 73.9305 60.1188 73.9305" stroke="black"/>
<path d="M10.6305 41.4714C10.6305 41.4714 9.04289 40.02 8.04006 39.7403C7.55388 39.6047 7.02737 39.8693 6.52619 39.8069C5.87505 39.7258 5.24388 39.5004 4.64226 39.2409C3.70249 38.8356 2.77432 38.3564 1.98457 37.7096C1.28648 37.1378 0.467086 36.5362 0.201565 35.6789C-0.016871 34.9735 0.371021 34.2129 0.470707 33.4817C0.582868 32.659 0.594329 31.8118 0.840776 31.0182C1.0382 30.3825 1.28869 29.7343 1.71545 29.2206C2.03589 28.8348 2.46291 28.5189 2.92655 28.3217C3.48043 28.0862 4.10698 28.04 4.70956 28.0221C5.22822 28.0067 5.81049 27.9272 6.25708 28.1886C6.4927 28.3265 6.72807 28.8544 6.72807 28.8544" fill="white"/>
<path d="M10.6305 41.4714C10.6305 41.4714 9.04289 40.02 8.04006 39.7403C7.55388 39.6047 7.02737 39.8693 6.52619 39.8069C5.87505 39.7258 5.24388 39.5004 4.64226 39.2409C3.70249 38.8356 2.77432 38.3564 1.98457 37.7096C1.28648 37.1378 0.467086 36.5362 0.201565 35.6789C-0.016871 34.9735 0.371021 34.2129 0.470707 33.4817C0.582868 32.659 0.594329 31.8118 0.840776 31.0182C1.0382 30.3825 1.28869 29.7343 1.71545 29.2206C2.03589 28.8348 2.46291 28.5189 2.92655 28.3217C3.48043 28.0862 4.10698 28.04 4.70956 28.0221C5.22822 28.0067 5.81049 27.9272 6.25708 28.1886C6.4927 28.3265 6.72807 28.8544 6.72807 28.8544" stroke="black"/>
<path d="M62.4532 50.8967C62.4532 50.8967 61.2219 48.5082 60.6928 47.5539C60.1516 46.5778 59.8096 45.4578 59.0515 44.6351C58.1905 43.7007 57.0731 42.9651 55.8876 42.493C55.306 42.2614 54.655 42.2589 54.0322 42.187C52.5981 42.0214 51.0743 42.7138 50.3688 43.1992C49.9485 43.4884 50.5128 46.683 50.5829 46.683" fill="white"/>
<path d="M62.4532 50.8967C62.4532 50.8967 61.2219 48.5082 60.6928 47.5539C60.1516 46.5778 59.8096 45.4578 59.0515 44.6351C58.1905 43.7007 57.0731 42.9651 55.8876 42.493C55.306 42.2614 54.655 42.2589 54.0322 42.187C52.5981 42.0214 51.0743 42.7138 50.3688 43.1992C49.9485 43.4884 50.5128 46.683 50.5829 46.683" stroke="black"/>
<path d="M13.0203 11.7269C12.9785 11.9766 12.9348 12.234 12.8184 12.4593C12.7168 12.6561 12.5103 12.7844 12.3979 12.9753C12.2826 13.1712 12.3515 13.5086 12.1456 13.6078C11.8617 13.7447 11.5478 13.3985 11.2373 13.3415C11.0271 13.3029 10.7938 13.2065 10.5981 13.2916C10.2983 13.4219 10.1517 13.774 9.99256 14.0572C9.87361 14.269 9.83228 14.5153 9.74024 14.7397C9.63172 15.0044 9.47415 15.2497 9.38701 15.522C9.30767 15.7699 9.36501 16.0613 9.23562 16.2877C9.12032 16.4894 8.89348 16.6046 8.71417 16.7538C8.53987 16.8987 8.22637 17.0867 8.17591 17.1699C8.12545 17.2531 7.99088 17.819 8.04134 17.8856C8.09181 17.9522 8.42564 18.2933 8.68053 18.3018C9.12466 18.3166 9.4626 17.8829 9.84117 17.6526C10.0134 17.5479 10.1453 17.2938 10.3458 17.3197C10.4718 17.336 10.5531 17.485 10.5981 17.6027C10.7369 17.966 10.6713 18.3863 10.5981 18.7679C10.4868 19.3479 10.1889 19.8782 9.94209 20.4157C9.7201 20.8992 9.50824 21.3945 9.20199 21.8305C8.92109 22.2305 8.39186 22.46 8.20957 22.9125C8.01848 23.3868 8.09144 23.9401 8.17593 24.4438C8.2561 24.9218 8.49767 25.3594 8.68054 25.8087C8.87278 26.2811 9.2577 26.6996 9.30292 27.2069C9.36323 27.8839 8.94351 28.5201 8.81512 29.1877C8.69237 29.826 8.48707 30.4714 8.54597 31.1185C8.57828 31.4733 8.72461 31.8138 8.88239 32.1339C9.13393 32.6442 9.47561 33.111 9.84118 33.5487C10.3236 34.1263 11.0695 34.4856 11.456 35.13C11.8074 35.7159 11.9606 36.416 12.0279 37.0941C12.0795 37.6151 12.03 38.1531 11.8933 38.6588C11.7396 39.227 11.2275 39.6754 11.1364 40.2567C11.0306 40.9313 11.1867 41.6399 11.4055 42.2874C11.9145 43.793 12.8525 45.1345 13.7773 46.4319C14.2218 47.0555 14.6805 47.6969 15.2911 48.163C15.5731 48.3782 15.9384 48.4584 16.2499 48.6291C17.1905 49.1444 18.0059 49.8856 18.9917 50.3102C19.4607 50.5122 19.965 50.6425 20.4719 50.7097C21.1555 50.8003 21.8561 50.7908 22.5409 50.7097C23.1539 50.637 23.75 50.4547 24.3407 50.2769C24.6207 50.1926 24.9167 50.1307 25.165 49.9773C25.3231 49.8796 25.3957 49.6632 25.5686 49.5945C25.8028 49.5014 26.1069 49.5612 26.3256 49.5945C26.5442 49.6278 26.9421 49.6503 27.217 49.7776C27.405 49.8646 27.6376 50.1271 27.7048 50.1604C27.7721 50.1937 28.2936 50.3934 28.3945 50.3934C28.4954 50.3934 29.2904 50.5007 29.7402 50.4933C29.9996 50.489 30.4466 50.4434 30.5139 50.4101C30.5812 50.3768 30.9901 50.2239 31.2372 50.1604C31.4906 50.0953 31.8428 50.0772 32.011 50.0272C32.1792 49.9773 32.7511 49.7276 32.9529 49.6278C33.1548 49.5279 33.6762 49.195 33.7098 49.1284C33.7435 49.0618 34.0967 48.6457 34.1472 48.5458C34.1977 48.446 34.3827 47.9799 34.3995 47.7802C34.4163 47.5804 34.4878 46.7122 34.4331 46.1822C34.3871 45.735 34.2489 45.3013 34.1304 44.8673C34.0277 44.4912 33.985 44.0829 33.7771 43.7521C33.327 43.0355 32.5296 42.6011 31.9269 42.0043C31.5765 41.6573 31.2808 41.254 30.9008 40.939C30.4728 40.5843 29.9519 40.3543 29.5047 40.0236C29.1763 39.7808 28.8292 39.5495 28.5627 39.2412C28.2946 38.931 28.1874 38.5064 27.9235 38.1926C27.6695 37.8905 27.3162 37.6849 27.032 37.4103C26.7964 37.1826 26.5368 36.969 26.3592 36.6945C26.1762 36.4117 26.162 36.0409 25.9723 35.7624C25.1701 34.5847 23.8497 33.8427 22.894 32.783C22.1518 31.9598 21.5096 31.0531 20.8419 30.1697C17.9141 27.1032 17.6578 25.9392 16.2793 23.7059C15.819 22.9597 15.3141 22.2228 15.0186 21.399C14.2601 19.2845 14.0859 17.0046 13.7578 14.7844C13.6252 13.8867 13.6774 12.9616 13.4724 12.0773C13.3838 11.6951 13.4603 10.9153 13.068 10.9709C12.8154 11.0068 13.062 11.4779 13.0203 11.7269Z" fill="#FF0000"/>
<path d="M35.7279 62.0463C37.0718 61.2854 38.354 60.3717 39.8351 59.8859C40.6933 59.6484 41.663 59.5277 42.4971 59.9061C43.2487 60.3766 43.319 61.5665 42.6194 62.1166C41.9875 62.7283 40.9219 62.995 40.6999 63.9458C40.5103 64.6269 40.04 65.3383 39.2797 65.5992C37.9988 66.1461 36.835 65.8434 35.5129 66.1964C34.7911 66.2894 34.0232 66.3217 33.343 66.0222C32.9762 64.993 31.9783 64.0926 30.8195 64.1979C30.1913 64.1875 29.4142 64.4926 28.9233 63.957C28.5072 63.355 29.1069 62.5775 29.7376 62.4486C31.0224 62.1685 32.4179 62.265 33.5859 62.8982C34.1039 63.2654 34.788 63.0365 35.1987 62.6198C35.3994 62.4511 35.5402 62.2235 35.7279 62.0463Z" fill="#FF0000"/>
<path d="M40.1026 69.6366C43.717 70.8993 47.3619 72.348 51.2299 72.5589C51.8181 72.5211 53.3688 72.8109 53.2265 71.9983C52.832 71.8085 52.262 71.3671 53.0294 71.2911C53.8482 70.5208 54.3352 69.2891 53.9007 68.2028C53.576 66.9833 54.559 66.0595 55.2136 65.1759C55.8779 64.3679 55.3481 63.435 55.4139 62.5427C55.4809 61.5906 55.7344 60.3856 54.8811 59.6921C53.7084 58.7663 52.6558 57.7007 51.4335 56.8387C50.7148 56.3035 50.215 55.5369 49.98 54.683C49.4196 53.493 47.9626 52.9915 46.7163 53.2574C45.3702 53.3746 43.9625 53.9136 43.2495 55.1202C42.466 56.0156 42.377 57.2728 42.8361 58.3345C43.2793 59.475 44.1407 60.4677 45.3025 60.9277C46.5358 61.2079 46.9196 62.5114 46.1428 63.4632C45.9584 64.6159 44.1793 64.7516 44.336 66.0022C44.6971 67.0311 44.1681 68.561 42.9101 68.5791C41.8921 68.1692 40.76 68.7094 40.1718 69.5613C40.1489 69.5864 40.126 69.6116 40.103 69.6367L40.1026 69.6366Z" fill="#FF0000"/>
<path d="M79.4299 61.0128C79.7053 62.6607 80.2317 64.4702 79.4013 66.0487C79.0602 68.6949 77.1993 67.9895 76.7992 66.3275C76.4494 65.441 76.2072 64.5111 75.7346 63.6446C74.4591 60.8442 73.3239 57.8864 71.2597 55.5428C68.5781 52.9815 61.5321 51.4147 61.5321 51.4147C61.5321 51.4147 61.8441 52.2401 61.6683 53.3508C61.4635 54.8694 62.5642 56.055 63.3755 57.1452C63.776 58.612 63.5133 60.6242 61.9409 61.3007C60.3616 62.2138 59.4182 64.2578 60.0715 66.0036C60.9905 66.5591 63.5889 67.5841 61.7969 68.7274C60.6028 69.3294 59.0668 69.9446 58.8505 71.4405C58.405 73.3098 60.593 73.9858 62.0308 73.4535C63.3455 73.1087 65.3971 73.5841 65.6649 71.7275C65.7621 70.4715 66.9687 69.018 68.0796 70.3985C69.327 71.652 70.3064 73.5581 72.242 73.8291C73.4722 73.9837 74.2174 72.4625 75.1248 71.8165C76.6267 70.9486 77.38 73.7182 78.6182 74.0998C80.2517 74.7627 81.9112 73.471 82.8618 72.2463C84.5996 70.2438 84.0183 67.2918 82.8532 65.1584C81.9598 63.8849 81.4476 62.3567 80.3852 61.2058C80.162 60.9396 79.7406 60.8756 79.43 61.0132L79.4299 61.0128Z" fill="#FF0000"/>
<path d="M52.0332 47.53C51.9829 47.9268 52.1893 48.5119 52.6847 48.4385C53.1315 48.4807 53.4624 49.01 53.2735 49.4201C53.1916 49.9584 53.5811 50.3966 53.8162 50.8423C54.0875 51.1693 54.3971 51.5925 54.8772 51.5628C55.3105 51.3347 55.0318 50.6864 54.634 50.5872C54.3162 50.4385 54.0979 49.7955 54.5964 49.7764C55.2765 49.7898 55.7497 50.3816 56.025 50.937C56.3382 51.4802 56.5841 52.0762 57.0088 52.5461C57.3119 52.7933 57.6128 53.1855 58.0455 53.1549C58.5243 53.0773 58.7999 52.6365 59.1631 52.3674C59.7861 51.8146 59.7823 50.8217 59.3136 50.176C59.0952 49.8101 58.7355 49.5524 58.3251 49.4348C56.5301 48.8236 54.7513 48.1651 52.9638 47.5315C52.5665 47.3895 52.0263 47.5066 51.6288 47.3652C51.716 47.5064 51.946 47.3887 52.0332 47.53Z" fill="#FF0000"/>
<path d="M78.4015 74.7382C78.486 74.9437 78.6714 75.1664 78.9183 75.1439C79.0691 75.1378 79.1155 74.9471 79.0464 74.8357C78.9709 74.6937 78.8625 74.5693 78.7489 74.4564C78.4719 74.2267 78.2796 74.127 77.9431 74.0552C77.5122 73.9828 77.0377 73.9921 76.6586 74.2332C76.422 74.3721 76.1903 74.5218 75.9715 74.6861C75.7036 74.9496 75.7213 75.383 75.8799 75.6983C75.9649 75.8559 76.1078 76.0442 76.3107 76.0236C76.4382 76.0226 76.6061 75.9067 76.5303 75.7668C76.4271 75.6249 76.2652 75.4905 76.2774 75.2978C76.761 74.4317 77.6823 74.3054 78.4015 74.7382Z" fill="black"/>
<path d="M77.6369 74.6538C77.5588 74.6559 77.4843 74.6839 77.4121 74.6867C77.4035 74.687 77.3905 74.6862 77.3788 74.6867C77.3355 74.6894 77.2773 74.6956 77.2289 74.7032C77.2047 74.707 77.1803 74.7088 77.1623 74.7115C77.1442 74.7142 77.1336 74.7197 77.129 74.7197C77.1103 74.7197 77.0739 74.7225 77.0374 74.728C77.0009 74.7335 76.9698 74.7414 76.9541 74.7444C76.9406 74.7471 76.9272 74.7512 76.9125 74.7609C76.8978 74.7707 76.8805 74.7886 76.8626 74.8021C76.8266 74.8292 76.7867 74.8559 76.7543 74.8763C76.7253 74.8945 76.6843 74.9094 76.6461 74.9257C76.6079 74.942 76.5687 74.9627 76.5462 74.9999C76.4765 75.1148 76.501 75.2648 76.5378 75.3871C76.581 75.5303 76.6881 75.6369 76.7876 75.7414C76.9222 75.8827 77.0831 76.0154 77.2539 76.1121C77.3459 76.1642 77.4789 76.2174 77.5952 76.2604C77.6533 76.2819 77.7012 76.3051 77.7451 76.3181C77.7889 76.3311 77.8241 76.3346 77.845 76.3346C77.8571 76.3346 77.8895 76.3391 77.9282 76.3428C77.9669 76.3465 78.0109 76.3497 78.0615 76.3511C78.1625 76.3538 78.2758 76.349 78.3529 76.3016C78.4609 76.2353 78.4956 76.0958 78.536 75.9886C78.5929 75.8378 78.67 75.6588 78.6276 75.4942C78.5949 75.3674 78.4722 75.3024 78.3945 75.2141C78.3146 75.1234 78.231 75.0219 78.1364 74.9422C78.0101 74.8358 77.8883 74.7058 77.7201 74.6621C77.6936 74.6552 77.6629 74.6531 77.6369 74.6538Z" fill="black"/>
<path d="M21.442 71.635C16.6884 70.0347 19.7976 66.2451 22.9783 63.0262L26.485 63.7257L22.4172 63.7963L26.4374 64.3848L21.299 64.7379L28.4116 65.0674L20.942 65.6324L29.1014 65.7265L20.2046 67.0683L27.1506 66.9035L20.0618 68.7867L27.6027 68.1982L20.609 70.1991L28.9348 68.7397L21.4653 71.6585" fill="black"/>
<path d="M57.1246 82.3918C56.1055 84.1578 54.8111 84.0537 53.3326 83.5822C49.8845 82.4826 48.3237 77.4954 49.1257 74.3691L52.7952 73.635L48.989 76.9305L53.3185 74.5295L49.322 78.6255L54.1273 74.8121L49.9881 80.085L55.0787 74.9063L50.5114 81.4502L56.0778 74.9532L51.6056 82.2034L57.0769 75.1886L52.9854 83.3803L57.6479 76.0829L54.7457 83.6627L58.7898 75.8947L57.1722 82.3917" fill="black"/>
<path d="M1.45203 37.2531C0.226782 36.2806 -0.096448 35.8025 0.655782 32.3846C0.900272 31.2738 0.916683 30.4657 1.24885 29.8717C2.15254 28.2558 3.67051 28.2243 5.37687 27.9907L6.59724 30.9343L3.83785 28.3449L6.31182 32.4409L2.83867 28.5803L6.78739 33.8532L1.74419 28.8627L7.59599 36.4897L1.12555 30.2753L7.26296 37.2432L0.602282 31.6407L5.64548 36.5841L0.269248 33.5239L5.45499 37.4314L0.221558 35.3599L7.21527 38.7496L1.45858 37.196" fill="black"/>
<path d="M50.2588 43.1956L54.1985 47.4857L51.8794 42.4843L54.784 47.1097L53.3721 42.2114L55.7903 47.7754L54.2385 42.0264L57.17 48.2033L55.4774 42.3013L58.2701 47.8914L56.6006 42.8909L59.8012 48.3003L57.8962 43.5811C55.1526 41.172 51.5526 42.1205 50.3262 43.2071" fill="black"/>
<path opacity="0.12157" d="M84.6759 72.9322C81.9359 77.1281 76.2205 76.4864 71.9294 75.7321C58.1621 73.609 43.3871 73.3405 31.238 65.7568C21.5963 58.8488 14.5395 48.9513 9.23276 38.5354C5.06158 28.9438 6.21814 17.5878 11.5116 8.64861C12.5954 6.64596 15.221 2.80201 16.0835 2.42131C14.1464 6.78701 11.1015 10.8 10.6779 15.6893C8.49892 23.0763 6.81046 31.851 11.6172 38.6232C14.6515 42.7712 21.0873 43.2518 23.0088 48.4192C24.3398 52.0697 27.9918 56.7615 32.1629 53.68C34.8193 51.5917 40.1448 50.0815 40.7584 54.8165C40.4709 58.5297 32.0185 60.4591 37.3244 64.4195C41.1908 67.7483 46.7517 66.8185 51.2895 65.7192C55.1319 66.4352 58.6149 70.453 62.5583 67.2679C66.9269 66.7673 67.6409 72.9336 72.0724 72.7697C75.9774 73.2928 80.0023 73.4362 83.9172 73.116L84.677 72.9314L84.6759 72.9322Z" fill="black"/>
<path opacity="0.1451" d="M81.8517 63.5438C78.0434 62.4566 76.6375 57.1127 72.0229 57.8134C66.8729 57.0604 61.4389 56.5356 57.0705 53.4443C53.9877 51.3164 50.9867 48.9207 47.2676 47.9673C43.2384 46.6924 38.8903 46.4795 35.1404 44.3834C30.3623 42.1072 25.9417 38.933 22.9244 34.5549C19.5419 29.9098 15.3251 25.8625 12.4341 20.8725C12.1944 18.5361 11.7376 13.2495 13.6457 12.7639C15.2288 15.8369 13.2597 19.7568 15.9302 22.567C19.678 29.9773 25.6345 36.402 32.9676 40.4337C40.0884 43.7084 47.8537 45.2631 55.0832 48.2671C63.83 51.2621 72.8299 54.404 79.9238 60.505C80.9318 61.1441 82.5995 62.1054 81.8519 63.5443L81.8517 63.5438Z" fill="black"/>
</g>
<defs>
<clipPath id="clip0_312_717">
<rect width="86" height="84" fill="white"/>
</clipPath>
</defs>
</svg>
